<svg fill="none" viewBox="0 0 80 80" xmlns="http://www.w3.org/2000/svg"><path d="m64.0003 10.6665h-48c-2.9466 0-5.3333 2.3867-5.3333 5.3333v48c0 2.9467 2.3867 5.3334 5.3333 5.3334h48c2.9467 0 5.3334-2.3867 5.3334-5.3334v-48c0-2.9466-2.3894-5.3333-5.3334-5.3333zm-3.496 25.264c-.3466.032-.696.0533-1.048.0533-3.9866 0-7.4906-2.048-9.5306-5.1493v17.5387c0 7.16-5.8054 12.9626-12.9627 12.9626-7.1573-.0026-12.9627-5.808-12.9627-12.9653 0-7.16 5.8054-12.9627 12.9627-12.9627.272 0 .536.024.8.04v6.3894c-.2667-.032-.5253-.08-.8-.08-3.6533 0-6.616 2.9626-6.616 6.616 0 3.6533 2.96 6.616 6.616 6.616s6.8827-2.88 6.8827-6.5334c0-.1466.064-29.7866.064-29.7866h6.104c.5733 5.4586 4.9813 9.768 10.4906 10.1626z" fill="#0051bb"/></svg>