<svg fill="none" viewBox="0 0 80 80" xmlns="http://www.w3.org/2000/svg"><path d="m39.9997 10.6665c-11.1627 0-25.6511 2.7969-25.6511 2.7969l-.0364.0416c-5.08409.8131-8.97919 5.1818-8.97919 10.4948v16 .0052 15.9948.0052c.00496 2.5375.91432 4.99 2.56479 6.9173 1.65048 1.9273 3.934 3.2031 6.4404 3.5984l.0104.0156s14.4884 2.8021 25.6511 2.8021c11.1626 0 25.651-2.8021 25.651-2.8021l.0052-.0052c2.5092-.3944 4.7953-1.6712 6.4471-3.6008 1.6517-1.9296 2.5607-4.3853 2.5633-6.9253v-.0052-15.9948-.0052-16c-.0037-2.5383-.9125-4.9921-2.5631-6.9205-1.6505-1.9284-3.9347-3.2049-6.4421-3.6003l-.0104-.0156s-14.4884-2.7969-25.651-2.7969zm-8 17.0625 21.3333 12.2708-21.3333 12.2709z" fill="#0051bb"/></svg>