<svg fill="#0285dd" viewBox="0 0 13 11" xmlns="http://www.w3.org/2000/svg"><path d="m12.0833 5.66829c-.001-.06647-.0166-.13185-.0456-.19125-.0289-.0594-.0705-.11129-.1217-.15179-.0008-.00058-.0016-.00116-.0025-.00173l-4.24294-4.373383c-.03946-.042354-.08671-.076168-.139-.099463-.05229-.023294-.10856-.035601-.16552-.036198-.05696-.000598-.11346.010526-.1662.032719-.05274.022192-.10065.055008-.14093.096526-.04028.041517-.07212.090899-.09365.145259s-.03232.1126-.03174.17131.01252.11672.03512.17061c.0226.0539.0554.1026.09649.14327l3.55057 3.65971h-10.098147c-.056733-.00082-.11306.00998-.165708.03179-.052648.0218-.100566.05418-.14097.09524s-.072488.08999-.094387.14394c-.021898.05395-.0331752.11185-.0331752.17034 0 .05848.0112772.11638.0331752.17033.021899.05396.053983.10288.094387.14394s.088322.07344.14097.09525c.052648.0218.108975.03261.165708.03178h10.098147l-3.55057 3.65971c-.04109.04067-.07389.08937-.09649.14327s-.03454.11193-.03512.17063.01021.1169.03174.1713c.02153.0543.05337.1037.09365.1453.04028.0415.08819.0743.14093.0965.05273.0222.10924.0333.1662.0327s.11323-.0129.16552-.0362.09954-.0571.139-.0995l4.24544-4.37594c.0528-.04183.0955-.09579.1245-.15759s.0437-.12972.0428-.19838z"/></svg>